<mxfile host="app.diagrams.net" modified="2022-01-24T13:11:41.526Z" agent="5.0 (X11)" etag="vGXEkrIFbEXXTnFVQFKo" version="15.9.1" type="github">
  <diagram id="TylROgOIzyObJvoiJXDS" name="Page-1">
    <mxGraphModel dx="1202" dy="758" grid="1" gridSize="10" guides="1" tooltips="1" connect="1" arrows="1" fold="1" page="1" pageScale="1" pageWidth="827" pageHeight="1169" math="0" shadow="0">
      <root>
        <mxCell id="0" />
        <mxCell id="1" parent="0" />
        <mxCell id="FrTccziTOztPPVVLW6pE-21" value="" style="rounded=0;whiteSpace=wrap;html=1;fontSize=14;" vertex="1" parent="1">
          <mxGeometry x="10" y="10" width="620" height="870" as="geometry" />
        </mxCell>
        <mxCell id="FrTccziTOztPPVVLW6pE-3" value="&lt;div style=&quot;font-size: 14px;&quot;&gt;Shell host&lt;br style=&quot;font-size: 14px;&quot;&gt;&lt;/div&gt;" style="rounded=0;whiteSpace=wrap;html=1;align=left;verticalAlign=top;fillColor=#f5f5f5;strokeColor=#666666;fontColor=#333333;fontSize=14;" vertex="1" parent="1">
          <mxGeometry x="40" y="40" width="560" height="290" as="geometry" />
        </mxCell>
        <mxCell id="FrTccziTOztPPVVLW6pE-4" value="Luigi Iframe" style="rounded=0;whiteSpace=wrap;html=1;align=left;verticalAlign=top;fillColor=#fff2cc;strokeColor=#d6b656;fontSize=14;" vertex="1" parent="1">
          <mxGeometry x="110" y="50" width="480" height="270" as="geometry" />
        </mxCell>
        <mxCell id="FrTccziTOztPPVVLW6pE-6" value="Client application (FSM app or 3rd party extension)" style="rounded=0;whiteSpace=wrap;html=1;fillColor=#f5f5f5;fontColor=#333333;strokeColor=#666666;align=left;verticalAlign=top;fontSize=14;" vertex="1" parent="1">
          <mxGeometry x="120" y="400" width="480" height="240" as="geometry" />
        </mxCell>
        <mxCell id="FrTccziTOztPPVVLW6pE-7" value="Outlet 1" style="rounded=0;whiteSpace=wrap;html=1;verticalAlign=top;align=left;fillColor=#fff2cc;strokeColor=#d6b656;fontSize=14;" vertex="1" parent="1">
          <mxGeometry x="140" y="475" width="200" height="140" as="geometry" />
        </mxCell>
        <mxCell id="FrTccziTOztPPVVLW6pE-8" value="Outlet 2" style="rounded=0;whiteSpace=wrap;html=1;verticalAlign=top;align=left;fillColor=#fff2cc;strokeColor=#d6b656;fontSize=14;" vertex="1" parent="1">
          <mxGeometry x="366" y="475" width="210" height="140" as="geometry" />
        </mxCell>
        <mxCell id="FrTccziTOztPPVVLW6pE-10" value="" style="html=1;shadow=0;dashed=0;align=center;verticalAlign=middle;shape=mxgraph.arrows2.arrow;dy=0.6;dx=40;direction=north;notch=0;fillColor=#dae8fc;strokeColor=#6c8ebf;" vertex="1" parent="1">
          <mxGeometry x="319" y="300" width="70" height="100" as="geometry" />
        </mxCell>
        <mxCell id="FrTccziTOztPPVVLW6pE-12" value="FSM hosted extension" style="rounded=0;whiteSpace=wrap;html=1;fillColor=#f5f5f5;fontColor=#333333;strokeColor=#666666;fontSize=14;" vertex="1" parent="1">
          <mxGeometry x="140" y="690" width="200" height="150" as="geometry" />
        </mxCell>
        <mxCell id="FrTccziTOztPPVVLW6pE-13" value="3rd party extension" style="rounded=0;whiteSpace=wrap;html=1;fillColor=#f5f5f5;fontColor=#333333;strokeColor=#666666;fontSize=14;" vertex="1" parent="1">
          <mxGeometry x="371" y="690" width="200" height="150" as="geometry" />
        </mxCell>
        <mxCell id="FrTccziTOztPPVVLW6pE-15" value="" style="html=1;shadow=0;dashed=0;align=center;verticalAlign=middle;shape=mxgraph.arrows2.arrow;dy=0.6;dx=40;direction=north;notch=0;fillColor=#dae8fc;strokeColor=#6c8ebf;" vertex="1" parent="1">
          <mxGeometry x="205" y="590" width="70" height="100" as="geometry" />
        </mxCell>
        <mxCell id="FrTccziTOztPPVVLW6pE-16" value="" style="html=1;shadow=0;dashed=0;align=center;verticalAlign=middle;shape=mxgraph.arrows2.arrow;dy=0.6;dx=40;direction=north;notch=0;fillColor=#dae8fc;strokeColor=#6c8ebf;" vertex="1" parent="1">
          <mxGeometry x="430" y="590" width="70" height="100" as="geometry" />
        </mxCell>
        <mxCell id="FrTccziTOztPPVVLW6pE-17" value="&lt;div style=&quot;font-size: 14px;&quot;&gt;&amp;lt;iframe sandbox=&quot;MainSandboxRules&quot; ...&lt;br style=&quot;font-size: 14px;&quot;&gt;&lt;/div&gt;" style="text;html=1;resizable=0;autosize=1;align=left;verticalAlign=middle;points=[];fillColor=none;strokeColor=none;rounded=0;fontSize=14;" vertex="1" parent="1">
          <mxGeometry x="110" y="78" width="270" height="20" as="geometry" />
        </mxCell>
        <mxCell id="FrTccziTOztPPVVLW6pE-18" value="&lt;div style=&quot;font-size: 14px&quot;&gt;&amp;lt;iframe &lt;br&gt;&lt;/div&gt;&lt;div style=&quot;font-size: 14px&quot;&gt;sandbox=&lt;/div&gt;&lt;div style=&quot;font-size: 14px&quot;&gt;&quot;OutletSandboxRules&quot; ...&lt;br style=&quot;font-size: 14px&quot;&gt;&lt;/div&gt;" style="text;html=1;resizable=0;autosize=1;align=left;verticalAlign=top;points=[];fillColor=none;strokeColor=none;rounded=0;fontSize=14;" vertex="1" parent="1">
          <mxGeometry x="144" y="505" width="170" height="60" as="geometry" />
        </mxCell>
        <mxCell id="FrTccziTOztPPVVLW6pE-19" value="&lt;div style=&quot;font-size: 14px&quot;&gt;&amp;lt;iframe &lt;br&gt;&lt;/div&gt;&lt;div style=&quot;font-size: 14px&quot;&gt;sandbox=&lt;/div&gt;&lt;div style=&quot;font-size: 14px&quot;&gt;&quot;OutletSandboxRules&quot; ...&lt;br style=&quot;font-size: 14px&quot;&gt;&lt;/div&gt;" style="text;html=1;resizable=0;autosize=1;align=left;verticalAlign=top;points=[];fillColor=none;strokeColor=none;rounded=0;fontSize=14;" vertex="1" parent="1">
          <mxGeometry x="371" y="505" width="170" height="60" as="geometry" />
        </mxCell>
      </root>
    </mxGraphModel>
  </diagram>
</mxfile>
